<?xml version="1.0"?>
<svg xmlns="http://www.w3.org/2000/svg" xmlns:xlink="http://www.w3.org/1999/xlink" viewBox="0 0 210 210" version="1.1" width="32px" height="32px"><g font-family="none" font-size="none" font-weight="none" style="mix-blend-mode: normal" fill="none" fill-rule="nonzero" stroke="none" stroke-dasharray="" stroke-dashoffset="0" stroke-linecap="butt" stroke-linejoin="miter" stroke-miterlimit="10" stroke-width="1" text-anchor="none"><path fill="none" d="M 0 210 v -210 h 210 v 210 Z"/><g fill="#000000"><g id="surface1"><path d="M 86.543 19.6875 l -1.02506 5.33203 l -3.89681 19.4824 c -6.25472 2.46094 -11.8945 5.92161 -17.0215 10.0488 l -19.0723 -6.5625 l -5.12695 -1.64062 l -2.66602 4.7168 l -13.125 22.5589 l -2.66602 4.71647 l 3.89648 3.48666 l 14.7656 12.9196 c -0.53832 3.35803 -1.23047 6.71606 -1.23047 10.2539 c 0 3.53784 0.69215 6.89587 1.23047 10.2539 l -14.7656 12.9202 l -3.89648 3.486 l 2.66602 4.71713 l 13.125 22.5586 l 2.66602 4.71647 l 5.12695 -1.64062 l 19.0723 -6.5625 c 5.12695 4.12716 10.7668 7.58822 17.0215 10.0492 l 3.89681 19.4821 l 1.02506 5.33203 h 36.9141 l 1.02572 -5.33203 l 3.89616 -19.4821 c 6.25472 -2.46094 11.8945 -5.922 17.0218 -10.0492 l 19.0719 6.5625 l 5.12728 1.64063 l 2.66569 -4.71647 l 13.125 -22.5586 l 2.66634 -4.71713 l -3.89681 -3.486 l -14.7656 -12.9202 c 0.53813 -3.35803 1.23047 -6.71606 1.23047 -10.2539 c 0 -3.53784 -0.69234 -6.89588 -1.23047 -10.2539 l 14.7656 -12.9196 l 3.89681 -3.48666 l -2.66634 -4.71647 l -13.125 -22.5589 l -2.66569 -4.7168 l -5.12728 1.64063 l -19.0719 6.5625 c -5.12728 -4.12722 -10.7671 -7.58789 -17.0218 -10.0488 l -3.89616 -19.4824 l -1.02572 -5.33203 Z M 97.207 32.8125 h 15.5859 l 3.28125 17.0215 l 0.82031 3.89648 l 3.69141 1.23047 c 7.45959 2.33277 14.2275 6.28051 19.8929 11.4844 l 2.87109 2.66634 l 3.69141 -1.23047 l 16.611 -5.74252 l 7.79297 13.3301 l -13.125 11.6898 l -3.07584 2.46094 l 1.02506 3.89616 c 0.84591 3.74259 1.23047 7.56197 1.23047 11.4844 c 0 3.92241 -0.38456 7.74178 -1.23047 11.4844 l -0.82031 3.89681 l 2.87109 2.46094 l 13.125 11.6891 l -7.79297 13.3304 l -16.611 -5.74219 l -3.69141 -1.23047 l -2.87109 2.66569 c -5.66541 5.20406 -12.4333 9.15141 -19.8929 11.4844 l -3.69141 1.23047 l -0.82031 3.89681 l -3.28125 17.0212 h -15.5859 l -3.28125 -17.0212 l -0.82031 -3.89681 l -3.69141 -1.23047 c -7.45959 -2.33297 -14.2275 -6.28031 -19.8923 -11.4844 l -2.87109 -2.66569 l -3.69173 1.23047 l -16.6113 5.74219 l -7.79297 -13.3304 l 13.125 -11.6891 l 3.07617 -2.46094 l -1.02539 -3.89681 c -0.84597 -3.74259 -1.23047 -7.56197 -1.23047 -11.4844 c 0 -3.92241 0.3845 -7.74178 1.23047 -11.4844 l 1.02539 -3.89616 l -3.07617 -2.46094 l -13.125 -11.6898 l 7.79297 -13.3301 l 16.6113 5.74252 l 3.69173 1.23047 l 2.87109 -2.66634 c 5.66475 -5.20387 12.4327 -9.1516 19.8923 -11.4844 l 3.69141 -1.23047 l 0.82031 -3.89648 Z M 105 72.1875 c -18.0469 0 -32.8125 14.7656 -32.8125 32.8125 c 0 18.0469 14.7656 32.8125 32.8125 32.8125 c 18.0469 0 32.8125 -14.7656 32.8125 -32.8125 c 0 -18.0469 -14.7656 -32.8125 -32.8125 -32.8125 Z M 105 85.3125 c 10.9462 0 19.6875 8.74125 19.6875 19.6875 c 0 10.9462 -8.74125 19.6875 -19.6875 19.6875 c -10.9462 0 -19.6875 -8.74125 -19.6875 -19.6875 c 0 -10.9462 8.74125 -19.6875 19.6875 -19.6875 Z"/></g></g></g></svg>
